<svg xmlns="http://www.w3.org/2000/svg" width="30" height="30" viewBox="0 0 30 30">
  <g id="fa-access" transform="translate(-359 -1004)">
    <rect id="Rechteck_1323" data-name="Rechteck 1323" width="30" height="30" transform="translate(359 1004)" fill="rgba(255,255,255,0)"/>
    <path id="Vereinigungsmenge_19" data-name="Vereinigungsmenge 19" d="M-12703,10.6A10.614,10.614,0,0,1-12692.4,0a10.614,10.614,0,0,1,10.6,10.6,10.614,10.614,0,0,1-10.6,10.6A10.614,10.614,0,0,1-12703,10.6Zm1.2,0a9.41,9.41,0,0,0,9.4,9.4,9.41,9.41,0,0,0,9.4-9.4,9.413,9.413,0,0,0-9.4-9.4A9.412,9.412,0,0,0-12701.8,10.6Zm6.138,7.537a1.927,1.927,0,0,1-1.553-1.272,1.928,1.928,0,0,1,.4-1.948l1.817-2.2v-.937l-2.168-.354a1.938,1.938,0,0,1-1.878-1.935,1.935,1.935,0,0,1,1.932-1.932.343.343,0,0,1,.058,0l4.651.437,4.4-.434c.032,0,.061-.006.089-.006h.02a1.937,1.937,0,0,1,1.916,1.932,1.936,1.936,0,0,1-1.875,1.935l-1.947.347v1.046l1.654,2.165a1.935,1.935,0,0,1-.363,2.71,1.927,1.927,0,0,1-1.173.4,1.917,1.917,0,0,1-1.537-.759l-1.237-1.623-1.374,1.664a1.934,1.934,0,0,1-1.559.791A1.935,1.935,0,0,1-12695.664,18.137Zm-2.181-8.649a.733.733,0,0,0,.732.733.48.48,0,0,1,.1.01l2.717.443a.6.6,0,0,1,.5.593v1.661a.6.6,0,0,1-.141.383l-1.964,2.381c-.01.013-.02.022-.025.032a.729.729,0,0,0-.159.743.728.728,0,0,0,.59.485c.034,0,.069.006.1.006a.737.737,0,0,0,.6-.306c.009-.013.019-.022.025-.032l1.868-2.26a.6.6,0,0,1,.475-.22.61.61,0,0,1,.466.236l1.692,2.222a.729.729,0,0,0,.584.29.753.753,0,0,0,.446-.15.739.739,0,0,0,.137-1.03l-1.779-2.321a.613.613,0,0,1-.121-.367V11.267a.6.6,0,0,1,.494-.59l2.487-.446a.579.579,0,0,1,.1-.01.737.737,0,0,0,.737-.733.736.736,0,0,0-.705-.73l-4.457.44c-.019,0-.038,0-.058,0a.338.338,0,0,1-.057,0l-4.677-.443A.735.735,0,0,0-12697.845,9.488Zm3.066-4.664a2.38,2.38,0,0,1,2.378-2.378,2.381,2.381,0,0,1,2.379,2.378A2.38,2.38,0,0,1-12692.4,7.2,2.38,2.38,0,0,1-12694.778,4.823Zm1.2,0A1.18,1.18,0,0,0-12692.4,6a1.178,1.178,0,0,0,1.177-1.176,1.179,1.179,0,0,0-1.177-1.18A1.18,1.18,0,0,0-12693.579,4.823Z" transform="translate(13066 1008)"/>
  </g>
</svg>
