<svg xmlns="http://www.w3.org/2000/svg" width="30" height="30" viewBox="0 0 30 30">
  <g id="fa-competencies" transform="translate(-738 -831)">
    <rect id="Rechteck_1319" data-name="Rechteck 1319" width="30" height="30" transform="translate(738 831)" fill="rgba(255,255,255,0)"/>
    <path id="Vereinigungsmenge_13" data-name="Vereinigungsmenge 13" d="M-12701.256,20a1.745,1.745,0,0,1-1.744-1.744V1.744A1.745,1.745,0,0,1-12701.256,0h16.512A1.746,1.746,0,0,1-12683,1.744V18.256a1.746,1.746,0,0,1-1.744,1.744Zm-.613-18.256V18.256a.614.614,0,0,0,.613.611h16.512a.614.614,0,0,0,.613-.611V1.744a.616.616,0,0,0-.613-.614h-16.512A.616.616,0,0,0-12701.869,1.744Zm5.094,15.11a.551.551,0,0,1-.4-.165l-2.514-2.514a.563.563,0,0,1,0-.8.561.561,0,0,1,.8,0l2.055,2.054,3.379-4.511a.568.568,0,0,1,.795-.111.562.562,0,0,1,.111.791l-3.771,5.032a.569.569,0,0,1-.414.226Zm5.662-1.886a.566.566,0,0,1-.566-.565.566.566,0,0,1,.566-.565h3.773a.566.566,0,0,1,.566.565.566.566,0,0,1-.566.565Zm-6.061-5.826-2.514-2.517a.563.563,0,0,1,0-.8.567.567,0,0,1,.8,0l2.055,2.054,3.379-4.508a.571.571,0,0,1,.795-.114.566.566,0,0,1,.111.794l-3.771,5.032a.565.565,0,0,1-.414.223.189.189,0,0,1-.041,0A.564.564,0,0,1-12697.174,9.143Zm6.061-1.72a.568.568,0,0,1-.566-.568.566.566,0,0,1,.566-.565h3.773a.566.566,0,0,1,.566.565.568.568,0,0,1-.566.568Z" transform="translate(13446 836)" fill="#1d1d1d"/>
  </g>
</svg>
