<svg xmlns="http://www.w3.org/2000/svg" width="30" height="30" viewBox="0 0 30 30">
  <g id="fa-calendar" transform="translate(-732 -426)">
    <rect id="Rechteck_1314" data-name="Rechteck 1314" width="30" height="30" transform="translate(732 426)" fill="rgba(255,255,255,0)"/>
    <path id="Vereinigungsmenge_4" data-name="Vereinigungsmenge 4" d="M-12702.4,19.2a.6.6,0,0,1-.6-.6V3a.6.6,0,0,1,.6-.6h4.2V.6a.6.6,0,0,1,.6-.6.6.6,0,0,1,.6.6V2.4h7.2V.6a.6.6,0,0,1,.6-.6.6.6,0,0,1,.6.6V2.4h4.2a.6.6,0,0,1,.6.6V18.6a.6.6,0,0,1-.6.6Zm.6-1.2h16.8V8.4h-16.8Zm16.8-10.8V3.6h-3.6V4.8a.6.6,0,0,1-.6.6.6.6,0,0,1-.6-.6V3.6h-7.2V4.8a.6.6,0,0,1-.6.6.6.6,0,0,1-.6-.6V3.6h-3.6V7.2Zm-4.2,8.1a.9.9,0,0,1,.9-.9.9.9,0,0,1,.9.9.9.9,0,0,1-.9.9A.9.9,0,0,1-12689.2,15.3Zm-5.1,0a.9.9,0,0,1,.9-.9.9.9,0,0,1,.9.9.9.9,0,0,1-.9.9A.9.9,0,0,1-12694.3,15.3Zm-5.1,0a.9.9,0,0,1,.9-.9.9.9,0,0,1,.9.9.9.9,0,0,1-.9.9A.9.9,0,0,1-12699.4,15.3Zm10.2-4.2a.9.9,0,0,1,.9-.9.9.9,0,0,1,.9.9.9.9,0,0,1-.9.9A.9.9,0,0,1-12689.2,11.1Zm-5.1,0a.9.9,0,0,1,.9-.9.9.9,0,0,1,.9.9.9.9,0,0,1-.9.9A.9.9,0,0,1-12694.3,11.1Zm-5.1,0a.9.9,0,0,1,.9-.9.9.9,0,0,1,.9.9.9.9,0,0,1-.9.9A.9.9,0,0,1-12699.4,11.1Z" transform="translate(13440.4 431.4)" fill="#1d1d1d"/>
  </g>
</svg>
