<svg xmlns="http://www.w3.org/2000/svg" width="30" height="30" viewBox="0 0 30 30">
  <g id="fa-data-preferences" transform="translate(-359 -925)">
    <rect id="Rechteck_1322" data-name="Rechteck 1322" width="30" height="30" transform="translate(359 925)" fill="rgba(255,255,255,0)"/>
    <path id="Vereinigungsmenge_17" data-name="Vereinigungsmenge 17" d="M-12699.876,18.806c-2.015-.8-3.124-1.945-3.124-3.207V4.348c0-1.262,1.109-2.4,3.124-3.207A19.046,19.046,0,0,1-12693.024,0a19.04,19.04,0,0,1,6.851,1.141c2.015.807,3.124,1.945,3.124,3.207V15.6c0,1.262-1.109,2.4-3.124,3.207a19.04,19.04,0,0,1-6.851,1.141A19.046,19.046,0,0,1-12699.876,18.806Zm-1.926-3.207c0,.717.887,1.5,2.369,2.095a17.828,17.828,0,0,0,6.408,1.055,17.81,17.81,0,0,0,6.4-1.055c1.485-.593,2.369-1.377,2.369-2.095v-3.49a7.484,7.484,0,0,1-1.923,1.074,19.04,19.04,0,0,1-6.851,1.141,19.046,19.046,0,0,1-6.852-1.141,7.539,7.539,0,0,1-1.926-1.078Zm0-5.624c0,.717.887,1.5,2.369,2.095a17.9,17.9,0,0,0,6.408,1.055,17.868,17.868,0,0,0,6.4-1.055c1.485-.593,2.369-1.377,2.369-2.095V6.484a7.52,7.52,0,0,1-1.923,1.075,19.04,19.04,0,0,1-6.851,1.141,19.046,19.046,0,0,1-6.852-1.141,7.534,7.534,0,0,1-1.926-1.078Zm2.369-7.721c-1.482.6-2.369,1.377-2.369,2.095s.887,1.5,2.369,2.095a17.825,17.825,0,0,0,6.408,1.058,17.8,17.8,0,0,0,6.4-1.058c1.485-.593,2.369-1.374,2.369-2.095s-.884-1.5-2.369-2.095a17.868,17.868,0,0,0-6.4-1.055A17.9,17.9,0,0,0-12699.433,2.254Z" transform="translate(13066.4 930.4)" fill="#1d1d1d"/>
  </g>
</svg>
