<svg xmlns="http://www.w3.org/2000/svg" width="30" height="30" viewBox="0 0 30 30">
  <g id="fa-folder-o" transform="translate(-730 -632)">
    <rect id="Rechteck_1315" data-name="Rechteck 1315" width="30" height="30" transform="translate(730 632)" fill="rgba(255,255,255,0)"/>
    <path id="Pfad_3162" data-name="Pfad 3162" d="M1.875,1.25H6.25A1.884,1.884,0,0,1,7.75,2L9.062,3.75h9.062A1.877,1.877,0,0,1,20,5.625v11.25a1.877,1.877,0,0,1-1.875,1.875H1.875A1.877,1.877,0,0,1,0,16.875V3.125A1.877,1.877,0,0,1,1.875,1.25ZM18.125,17.5a.626.626,0,0,0,.625-.625V5.625A.626.626,0,0,0,18.125,5H8.75a.625.625,0,0,1-.5-.25l-1.5-2a.628.628,0,0,0-.5-.25H1.875a.626.626,0,0,0-.625.625v13.75a.626.626,0,0,0,.625.625Z" transform="translate(735 636.75)" fill="#1d1d1d"/>
  </g>
</svg>
