<svg xmlns="http://www.w3.org/2000/svg" width="30" height="30" viewBox="0 0 30 30">
  <g id="fa-file-o" transform="translate(-738 -466)">
    <rect id="Rechteck_1314" data-name="Rechteck 1314" width="30" height="30" transform="translate(738 466)" fill="rgba(255,255,255,0)"/>
    <path id="Vereinigungsmenge_5" data-name="Vereinigungsmenge 5" d="M-12701.018,21.969a1.985,1.985,0,0,1-1.982-1.983V4.753a.6.6,0,0,1,.6-.6.6.6,0,0,1,.6.6V19.986a.788.788,0,0,0,.784.784h12.462a.6.6,0,0,1,.6.6.6.6,0,0,1-.6.6Zm2.771-2.767a1.988,1.988,0,0,1-1.982-1.986V1.986a.6.6,0,0,1,.6-.6.6.6,0,0,1,.6.6V17.215a.786.786,0,0,0,.784.784h12.462a.6.6,0,0,1,.6.6.6.6,0,0,1-.6.6Zm2.771-2.77a1.987,1.987,0,0,1-1.986-1.986V1.986A1.987,1.987,0,0,1-12695.477,0h7.043a1.969,1.969,0,0,1,1.4.58l2.652,2.652a1.963,1.963,0,0,1,.58,1.4v9.81a1.986,1.986,0,0,1-1.983,1.986Zm-.787-14.445V14.445a.786.786,0,0,0,.787.784h9.691a.784.784,0,0,0,.784-.784V4.635a.778.778,0,0,0-.229-.555l-2.652-2.652a.793.793,0,0,0-.551-.23h-7.043A.789.789,0,0,0-12696.264,1.986Z" transform="translate(13446 470)" fill="#1d1d1d"/>
  </g>
</svg>
