<svg xmlns="http://www.w3.org/2000/svg" width="30" height="30" viewBox="0 0 30 30">
  <g id="fa-grades" transform="translate(-739 -876)">
    <rect id="Rechteck_1320" data-name="Rechteck 1320" width="30" height="30" transform="translate(739 876)" fill="rgba(255,255,255,0)"/>
    <path id="Vereinigungsmenge_14" data-name="Vereinigungsmenge 14" d="M-12686.622,23.977l-3.793-1.095a.622.622,0,0,1-.444-.6v-4.18l-1.8-.56v2.546a.62.62,0,0,1-.62.62.621.621,0,0,1-.619-.62V16.718a.622.622,0,0,1,.408-.6l6.827-2.49a.632.632,0,0,1,.427,0l6.825,2.49a.622.622,0,0,1,.409.6.619.619,0,0,1-.435.577l-2.6.81v4.18a.623.623,0,0,1-.448.6l-3.794,1.095a.61.61,0,0,1-.171.023A.639.639,0,0,1-12686.622,23.977Zm-3-2.16,3.173.917,3.172-.917V18.491l-2.987.931a.719.719,0,0,1-.185.026.7.7,0,0,1-.185-.026l-2.988-.931Zm3.173-3.638,3.606-1.122h0l1.273-.4-4.884-1.781-4.889,1.781,1.262.392.033.01Zm-14.416,2.787a2.141,2.141,0,0,1-2.138-2.137V2.137A2.141,2.141,0,0,1-12700.862,0h10.752a2.113,2.113,0,0,1,1.511.627l2.905,2.906a2.118,2.118,0,0,1,.627,1.511V9.726a.622.622,0,0,1-.621.62.623.623,0,0,1-.622-.62V5.043a.889.889,0,0,0-.261-.633l-2.906-2.906a.9.9,0,0,0-.633-.264h-10.752a.9.9,0,0,0-.9.9V18.829a.9.9,0,0,0,.9.9h3.034a.62.62,0,0,1,.62.62.62.62,0,0,1-.62.62Zm1.517-4.551a.62.62,0,0,1-.62-.62.62.62,0,0,1,.62-.62h1.518a.62.62,0,0,1,.62.62.62.62,0,0,1-.62.62Zm4.553-3.793a.621.621,0,0,1-.622-.62.623.623,0,0,1,.622-.623h4.553a.624.624,0,0,1,.621.623.622.622,0,0,1-.621.62Zm-4.553,0a.62.62,0,0,1-.62-.62.622.622,0,0,1,.62-.623h1.518a.622.622,0,0,1,.62.623.62.62,0,0,1-.62.62Zm4.553-3.793a.623.623,0,0,1-.622-.623.623.623,0,0,1,.622-.62h4.553a.624.624,0,0,1,.621.62.624.624,0,0,1-.621.623Zm-4.553,0a.622.622,0,0,1-.62-.623.622.622,0,0,1,.62-.62h1.518a.622.622,0,0,1,.62.62.622.622,0,0,1-.62.623Zm4.553-3.793a.623.623,0,0,1-.622-.623.621.621,0,0,1,.622-.62h4.553a.622.622,0,0,1,.621.62.624.624,0,0,1-.621.623Zm-4.553,0a.622.622,0,0,1-.62-.623.62.62,0,0,1,.62-.62h1.518a.62.62,0,0,1,.62.62.622.622,0,0,1-.62.623Z" transform="translate(13446.002 880)" fill="#1d1d1d"/>
  </g>
</svg>
