<svg xmlns="http://www.w3.org/2000/svg" width="30" height="30" viewBox="0 0 30 30">
  <g id="fa-graduation-cap" transform="translate(-730 -548)">
    <rect id="Rechteck_1315" data-name="Rechteck 1315" width="30" height="30" transform="translate(730 548)" fill="rgba(255,255,255,0)"/>
    <path id="Vereinigungsmenge_15" data-name="Vereinigungsmenge 15" d="M-12706.027,19.951a.6.6,0,0,1-.6-.6.6.6,0,0,1,.6-.6h1.369l.426-2.552h-4.918a1.851,1.851,0,0,1-1.85-1.85V1.85a1.851,1.851,0,0,1,1.85-1.85h16.251a1.851,1.851,0,0,1,1.85,1.85v12.5a1.851,1.851,0,0,1-1.85,1.85h-4.918l.426,2.552h1.365a.6.6,0,0,1,.6.6.6.6,0,0,1-.6.6Zm2.584-1.2h4.837l-.428-2.552h-3.984Zm-6.357-16.9v12.5a.652.652,0,0,0,.65.651h16.251a.652.652,0,0,0,.65-.651V1.85a.654.654,0,0,0-.65-.651h-16.251A.654.654,0,0,0-12709.8,1.85Zm8.782,10.6h-.013a5.407,5.407,0,0,1-3.525-1.407.6.6,0,0,1-.194-.443V7.726l-2.144-.953a.6.6,0,0,1-.354-.549.6.6,0,0,1,.354-.549l5.624-2.5a.608.608,0,0,1,.245-.051.586.586,0,0,1,.243.051l5.613,2.493a.6.6,0,0,1,.364.488h0s0,.009,0,.013a.087.087,0,0,1,0,.016.033.033,0,0,1,0,.01c0,.009,0,.018,0,.027V8.1a.6.6,0,0,1-.6.6.6.6,0,0,1-.6-.6V7.147l-1.3.579V10.6a.6.6,0,0,1-.191.44,5.347,5.347,0,0,1-3.516,1.41Zm-2.533-2.128a4.187,4.187,0,0,0,2.533.928,4.147,4.147,0,0,0,2.517-.925V8.259l-2.28,1.014a.593.593,0,0,1-.488,0l-2.281-1.014Zm-1.62-4.1,4.146,1.844,4.147-1.844-4.147-1.841Z" transform="translate(13446 553)" fill="#1d1d1d"/>
  </g>
</svg>
