<svg xmlns="http://www.w3.org/2000/svg" width="30" height="30" viewBox="0 0 30 30">
  <g id="fa-home" transform="translate(-738 -349)">
    <rect id="Rechteck_1313" data-name="Rechteck 1313" width="30" height="30" transform="translate(738 349)" fill="rgba(255,255,255,0)"/>
    <path id="Vereinigungsmenge_2" data-name="Vereinigungsmenge 2" d="M-12690.4,19.313a.6.6,0,0,1-.6-.6V13.38a.736.736,0,0,0-.733-.733h-1.333a.733.733,0,0,0-.732.733v5.334a.6.6,0,0,1-.6.6h-5.334a.6.6,0,0,1-.6-.6V11.381a.6.6,0,0,1,.6-.6.6.6,0,0,1,.6.6v6.733h4.132V13.38a1.935,1.935,0,0,1,1.935-1.932h1.333a1.935,1.935,0,0,1,1.932,1.932v4.734h4.136V11.381a.6.6,0,0,1,.6-.6.6.6,0,0,1,.6.6v7.333a.6.6,0,0,1-.6.6Zm7.574-8.84-9.057-9.057a.722.722,0,0,0-.52-.217.717.717,0,0,0-.517.217l-9.058,9.057a.6.6,0,0,1-.848,0,.6.6,0,0,1,0-.848l9.057-9.057A1.908,1.908,0,0,1-12692.4,0a1.908,1.908,0,0,1,1.367.567l9.058,9.057a.6.6,0,0,1,0,.848.593.593,0,0,1-.425.175A.6.6,0,0,1-12682.825,10.473Z" transform="translate(13445.4 354)" fill="#1d1d1d"/>
  </g>
</svg>
