<svg xmlns="http://www.w3.org/2000/svg" width="30" height="30" viewBox="0 0 30 30">
  <g id="fa-language" transform="translate(-738 -719)">
    <rect id="Rechteck_1316" data-name="Rechteck 1316" width="30" height="30" transform="translate(738 719)" fill="rgba(255,255,255,0)"/>
    <path id="Vereinigungsmenge_10" data-name="Vereinigungsmenge 10" d="M-12699.485,20.484A11.9,11.9,0,0,1-12703,12a11.909,11.909,0,0,1,3.516-8.486A11.91,11.91,0,0,1-12691,0a11.912,11.912,0,0,1,8.482,3.516A11.913,11.913,0,0,1-12679,12a11.953,11.953,0,0,1-1.267,5.381.621.621,0,0,1-.209.395,12.04,12.04,0,0,1-2.04,2.707A11.912,11.912,0,0,1-12691,24,11.91,11.91,0,0,1-12699.485,20.484Zm8.486,2.276a10.758,10.758,0,0,0,8.971-4.828h-.888a2.135,2.135,0,0,1-2.081-1.781l-.706-4.287h-1.072a2.141,2.141,0,0,1-1.678-.821,2.09,2.09,0,0,1-.4-1.834l.759-3.034a2.124,2.124,0,0,1,2.067-1.623h2.782A10.731,10.731,0,0,0-12691,1.24a10.782,10.782,0,0,0-10.365,7.863h4.629a2.12,2.12,0,0,1,2.068,1.629l.755,3.024a2.074,2.074,0,0,1-.386,1.834,2.126,2.126,0,0,1-1.682.825h-.581l-.839,4.231A10.707,10.707,0,0,0-12691,22.76ZM-12701.762,12a10.726,10.726,0,0,0,3.28,7.724l.8-4.054a.614.614,0,0,1,.605-.5h1.1a.88.88,0,0,0,.7-.346l.01-.01a.831.831,0,0,0,.155-.745v-.01l-.762-3.034a.882.882,0,0,0-.861-.683h-4.9A10.765,10.765,0,0,0-12701.762,12Zm16.587-1.382a.624.624,0,0,1,.613.521l.788,4.805a.9.9,0,0,0,.867.745h1.587a10.686,10.686,0,0,0,1.077-4.69,10.7,10.7,0,0,0-1.975-6.207h-3.81a.878.878,0,0,0-.861.676l-.762,3.041v.007a.828.828,0,0,0,.162.742.115.115,0,0,0,.013.016.869.869,0,0,0,.7.343Z" transform="translate(13444.002 722)" fill="#1d1d1d"/>
  </g>
</svg>
