<svg xmlns="http://www.w3.org/2000/svg" width="30" height="30" viewBox="0 0 30 30">
  <g id="fa-logout" transform="translate(-359 -943)">
    <rect id="Rechteck_1322" data-name="Rechteck 1322" width="30" height="30" transform="translate(359 943)" fill="rgba(255,255,255,0)"/>
    <path id="Vereinigungsmenge_18" data-name="Vereinigungsmenge 18" d="M-12696.35,20.451a10.6,10.6,0,0,1-4.833-3.9A10.58,10.58,0,0,1-12703,10.61a10.565,10.565,0,0,1,1.817-5.939,10.58,10.58,0,0,1,4.833-3.9,10.56,10.56,0,0,1,6.188-.529,10.547,10.547,0,0,1,5.423,3.025.6.6,0,0,1-.016.848.6.6,0,0,1-.849-.016,9.352,9.352,0,0,0-4.811-2.684,9.373,9.373,0,0,0-5.489.469,9.37,9.37,0,0,0-4.285,3.462,9.366,9.366,0,0,0-1.609,5.267,9.374,9.374,0,0,0,1.609,5.267,9.363,9.363,0,0,0,4.285,3.459,9.374,9.374,0,0,0,5.489.472,9.4,9.4,0,0,0,4.811-2.684.6.6,0,0,1,.849-.019.6.6,0,0,1,.016.848,10.575,10.575,0,0,1-5.423,3.029,10.606,10.606,0,0,1-2.238.236A10.565,10.565,0,0,1-12696.35,20.451Zm10.447-6.325a.6.6,0,0,1,0-.848l2.055-2.053h-9.33a.6.6,0,0,1-.6-.6.6.6,0,0,1,.6-.6h9.328l-2.053-2.053a.6.6,0,0,1,0-.848.6.6,0,0,1,.848,0l3.08,3.076a.664.664,0,0,1,.08.1.6.6,0,0,1,.094.295c0,.01,0,.02,0,.03s0,.02,0,.029a.592.592,0,0,1-.126.338.7.7,0,0,1-.048.056l-3.08,3.076a.6.6,0,0,1-.424.179A.6.6,0,0,1-12685.9,14.126Z" transform="translate(13066.398 947.399)"/>
  </g>
</svg>
