<svg xmlns="http://www.w3.org/2000/svg" width="30" height="30" viewBox="0 0 30 30">
  <g id="fa-messages" transform="translate(-359 -858)">
    <rect id="Rechteck_1320" data-name="Rechteck 1320" width="30" height="30" transform="translate(359 858)" fill="rgba(255,255,255,0)"/>
    <g id="Gruppe_3802" data-name="Gruppe 3802" transform="translate(362.5 861.5)">
      <path id="Pfad_3074" data-name="Pfad 3074" d="M5.5,22.1a.6.6,0,0,1-.6-.6V18.1H2.833A1.936,1.936,0,0,1,.9,16.167V2.833A1.936,1.936,0,0,1,2.833.9H20.167A1.936,1.936,0,0,1,22.1,2.833V16.167A1.936,1.936,0,0,1,20.167,18.1H11.033L5.86,21.98A.6.6,0,0,1,5.5,22.1ZM2.833,2.1a.734.734,0,0,0-.733.733V16.167a.734.734,0,0,0,.733.733H5.5a.6.6,0,0,1,.6.6v2.8l4.373-3.28a.6.6,0,0,1,.36-.12h9.333a.734.734,0,0,0,.733-.733V2.833a.734.734,0,0,0-.733-.733Z" fill="#1d1d1d"/>
    </g>
  </g>
</svg>
