<svg xmlns="http://www.w3.org/2000/svg" width="30" height="30" viewBox="0 0 30 30">
  <g id="fa-notification" transform="translate(-359 -891)">
    <rect id="Rechteck_1321" data-name="Rechteck 1321" width="30" height="30" transform="translate(359 891)" fill="rgba(255,255,255,0)"/>
    <path id="Vereinigungsmenge_16" data-name="Vereinigungsmenge 16" d="M-12697.132,18.267a.6.6,0,0,1,.4-.743.6.6,0,0,1,.746.4,1.141,1.141,0,0,0,1.091.819,1.14,1.14,0,0,0,1.093-.819.6.6,0,0,1,.746-.4.6.6,0,0,1,.405.743,2.35,2.35,0,0,1-2.244,1.683A2.349,2.349,0,0,1-12697.132,18.267Zm-5.261-2.069a.6.6,0,0,1-.548-.338.582.582,0,0,1,.073-.628c.061-.086,1.125-1.706,1.125-6.507a6.861,6.861,0,0,1,6.252-6.825V.6a.6.6,0,0,1,.6-.6.6.6,0,0,1,.6.6V1.9a6.858,6.858,0,0,1,6.249,6.825c0,4.986.925,6.274,1.042,6.418a.558.558,0,0,1,.214.644.618.618,0,0,1-.605.411Zm1.849-7.473a17.658,17.658,0,0,1-.876,6.274h12.991a17.666,17.666,0,0,1-.813-6.274,5.656,5.656,0,0,0-5.648-5.649A5.659,5.659,0,0,0-12700.544,8.726Z" transform="translate(13068.391 896.4)" fill="#1d1d1d"/>
  </g>
</svg>
