<svg xmlns="http://www.w3.org/2000/svg" width="30" height="30" viewBox="0 0 30 30">
  <g id="fa-phone" transform="translate(-738 -675)">
    <rect id="Rechteck_1315" data-name="Rechteck 1315" width="30" height="30" transform="translate(738 675)" fill="rgba(255,255,255,0)"/>
    <path id="Vereinigungsmenge_9" data-name="Vereinigungsmenge 9" d="M-12690.317,24.357a.086.086,0,0,1-.02-.016l-.009,0a43.734,43.734,0,0,1-11.793-11.793l-.02-.029v0a5.414,5.414,0,0,1-.81-3.485,5.423,5.423,0,0,1,1.55-3.23l.673-.669a2.173,2.173,0,0,1,1.556-.647,2.187,2.187,0,0,1,1.556.647l2.827,2.828a2.2,2.2,0,0,1,0,3.112,1,1,0,0,0,0,1.412.6.6,0,0,1,0,.848.6.6,0,0,1-.848,0,2.2,2.2,0,0,1,0-3.108,1,1,0,0,0,0-1.415l-2.828-2.828a1,1,0,0,0-.707-.293,1,1,0,0,0-.708.293l-.673.669a4.217,4.217,0,0,0-1.205,2.512,4.221,4.221,0,0,0,.631,2.716s.007.006.007.01a42.546,42.546,0,0,0,11.468,11.461s.006,0,.009.006a4.223,4.223,0,0,0,2.7.625,4.211,4.211,0,0,0,2.512-1.208l.67-.669a1,1,0,0,0,0-1.415l-2.831-2.828a1,1,0,0,0-1.415,0,2.192,2.192,0,0,1-1.556.644,2.194,2.194,0,0,1-1.556-.644.6.6,0,0,1,0-.848.6.6,0,0,1,.848,0,1,1,0,0,0,.708.293,1,1,0,0,0,.707-.293,2.2,2.2,0,0,1,3.112,0l2.831,2.828a2.207,2.207,0,0,1,0,3.112l-.673.673a5.425,5.425,0,0,1-3.229,1.549,5.121,5.121,0,0,1-.584.032A5.445,5.445,0,0,1-12690.317,24.357Zm-2.085-8.911a.6.6,0,0,1-.166-.634l1.54-4.619A6.993,6.993,0,0,1-12691.8,7a7.009,7.009,0,0,1,7-7,6.906,6.906,0,0,1,2.7.545,7.007,7.007,0,0,1,3.749,9.162,6.993,6.993,0,0,1-6.459,4.294,6.925,6.925,0,0,1-2.461-.45l-4.488,2a.621.621,0,0,1-.248.052A.591.591,0,0,1-12692.4,15.446Zm1.8-8.445a5.8,5.8,0,0,0,.746,2.841.6.6,0,0,1,.045.485L-12691,13.9l3.479-1.546a.6.6,0,0,1,.475-.006,5.728,5.728,0,0,0,2.241.456,5.786,5.786,0,0,0,5.35-3.558,5.806,5.806,0,0,0-3.1-7.594,5.757,5.757,0,0,0-2.238-.453A5.812,5.812,0,0,0-12690.6,7Zm4.8,2.4a1,1,0,0,1,1-1,1,1,0,0,1,1,1,1,1,0,0,1-1,1A1,1,0,0,1-12685.8,9.4Zm.4-2.4a.6.6,0,0,1,.6-.6,1,1,0,0,0,1-1,1,1,0,0,0-1-1,1,1,0,0,0-1,1,.6.6,0,0,1-.6.6.6.6,0,0,1-.6-.6,2.2,2.2,0,0,1,2.2-2.2,2.2,2.2,0,0,1,2.2,2.2,2.2,2.2,0,0,1-2.2,2.2A.6.6,0,0,1-12685.4,7Z" transform="translate(13443 677)" fill="#1d1d1d"/>
  </g>
</svg>
