<svg xmlns="http://www.w3.org/2000/svg" width="30" height="30" viewBox="0 0 30 30">
  <g id="fa-paint-brush" transform="translate(-738 -505)">
    <rect id="Rechteck_1315" data-name="Rechteck 1315" width="30" height="30" transform="translate(738 505)" fill="rgba(255,255,255,0)"/>
    <path id="Vereinigungsmenge_6" data-name="Vereinigungsmenge 6" d="M-12702.8,19.043l-.021-.02a.594.594,0,0,1-.176-.466c0-.248.015-1.525.176-2.968.248-2.225.7-3.644,1.374-4.329a4.385,4.385,0,0,1,3.151-1.4l.859-3.189a.576.576,0,0,1,.232-.335l7.992-5.63a3.4,3.4,0,0,1,2.069-.708,3.35,3.35,0,0,1,2.368.972s0,0,0,.006a3.377,3.377,0,0,1,.265,4.435l-5.631,7.992a.58.58,0,0,1-.334.233l-3.189.86a4.386,4.386,0,0,1-1.4,3.151c-.686.676-2.1,1.125-4.329,1.374-1.407.157-2.655.173-2.947.175a.6.6,0,0,1-.062,0A.6.6,0,0,1-12702.8,19.043Zm5.329-5.37a.607.607,0,0,1,0,.851l-3.429,3.426c1.968-.119,4.314-.47,5-1.159a.1.1,0,0,0,.017-.019,3.164,3.164,0,0,0,1.023-2.327,2.9,2.9,0,0,0-.015-.292c0-.011,0-.022,0-.033a3.4,3.4,0,0,0-.937-1.938l-.067-.064a.35.35,0,0,0-.032-.035l0,0a3.4,3.4,0,0,0-1.969-1,3.152,3.152,0,0,0-.358-.021,3.169,3.169,0,0,0-2.328,1.02c-.006.006-.013.01-.019.016-.689.692-1.04,3.038-1.159,5l3.429-3.429a.6.6,0,0,1,.423-.175A.606.606,0,0,1-12697.474,13.674Zm2.423-2.423a4.381,4.381,0,0,1,1.234,2.045l2.823-.757,5.513-7.83c.006-.006.01-.016.019-.026a2.173,2.173,0,0,0-.162-2.86,2.156,2.156,0,0,0-1.521-.625,2.148,2.148,0,0,0-1.339.465.137.137,0,0,1-.025.016l-7.827,5.512-.759,2.824A4.384,4.384,0,0,1-12695.051,11.251Z" transform="translate(13446 510)" fill="#1d1d1d"/>
  </g>
</svg>
