<svg xmlns="http://www.w3.org/2000/svg" width="30" height="30" viewBox="0 0 30 30">
  <g id="fa-participant" transform="translate(-738 -795)">
    <path id="Vereinigungsmenge_12" data-name="Vereinigungsmenge 12" d="M-12693.6,23.2a.6.6,0,0,1-.6-.539l-.679-6.794h-1.658a.6.6,0,0,1-.6-.6v-2.2a5.741,5.741,0,0,1,5.735-5.735,5.741,5.741,0,0,1,5.731,5.735v2.2a.6.6,0,0,1-.6.6h-1.657l-.679,6.794a.6.6,0,0,1-.6.539Zm-2.334-10.132v1.6h1.6a.6.6,0,0,1,.6.539l.679,6.794h3.313l.679-6.794a.6.6,0,0,1,.6-.539h1.6v-1.6a4.538,4.538,0,0,0-4.529-4.533A4.54,4.54,0,0,0-12695.936,13.068Zm10.4,8.665a.6.6,0,0,1-.6-.6.6.6,0,0,1,.6-.6h2.4l.67-5.343a.6.6,0,0,1,.6-.523h.867v-1.6a3.07,3.07,0,0,0-3.066-3.067.6.6,0,0,1-.6-.6.6.6,0,0,1,.6-.6,4.272,4.272,0,0,1,4.266,4.269v2.2a.6.6,0,0,1-.6.6h-.937l-.669,5.34a.6.6,0,0,1-.593.526Zm-14.668,0a.6.6,0,0,1-.6-.526l-.667-5.34h-.937a.6.6,0,0,1-.6-.6v-2.2a4.239,4.239,0,0,1,1.25-3.019,4.247,4.247,0,0,1,3.016-1.25.6.6,0,0,1,.6.6.6.6,0,0,1-.6.6,3.053,3.053,0,0,0-2.168.9,3.052,3.052,0,0,0-.9,2.171v1.6h.867a.6.6,0,0,1,.6.523l.666,5.343h2.4a.6.6,0,0,1,.6.6.6.6,0,0,1-.6.6Zm13.332-16a2.8,2.8,0,0,1,2.8-2.8,2.8,2.8,0,0,1,2.8,2.8,2.8,2.8,0,0,1-2.8,2.8A2.8,2.8,0,0,1-12686.869,5.732Zm1.2,0a1.6,1.6,0,0,0,1.6,1.6,1.6,1.6,0,0,0,1.6-1.6,1.6,1.6,0,0,0-1.6-1.6A1.6,1.6,0,0,0-12685.667,5.732Zm-15.866,0a2.8,2.8,0,0,1,2.8-2.8,2.8,2.8,0,0,1,2.8,2.8,2.8,2.8,0,0,1-2.8,2.8A2.8,2.8,0,0,1-12701.533,5.732Zm1.2,0a1.6,1.6,0,0,0,1.6,1.6,1.6,1.6,0,0,0,1.6-1.6,1.6,1.6,0,0,0-1.6-1.6A1.6,1.6,0,0,0-12700.335,5.732Zm5.4-2.2A3.537,3.537,0,0,1-12691.4,0a3.536,3.536,0,0,1,3.532,3.532,3.539,3.539,0,0,1-3.532,3.536A3.54,3.54,0,0,1-12694.935,3.532Zm1.2,0a2.337,2.337,0,0,0,2.337,2.334,2.334,2.334,0,0,0,2.33-2.334,2.336,2.336,0,0,0-2.33-2.334A2.34,2.34,0,0,0-12693.735,3.532Z" transform="translate(13444 798)" fill="#1d1d1d"/>
    <rect id="Rechteck_1317" data-name="Rechteck 1317" width="30" height="30" transform="translate(738 795)" fill="rgba(255,255,255,0)"/>
  </g>
</svg>
