<svg xmlns="http://www.w3.org/2000/svg" width="30" height="30" viewBox="0 0 30 30">
  <g id="fa-tachometer" transform="translate(-732 -383)">
    <rect id="Rechteck_1313" data-name="Rechteck 1313" width="30" height="30" transform="translate(732 383)" fill="rgba(255,255,255,0)"/>
    <path id="Vereinigungsmenge_3" data-name="Vereinigungsmenge 3" d="M-12701.632,15.046a.6.6,0,0,1-.555-.37,10.611,10.611,0,0,1,3.326-12.482A10.653,10.653,0,0,1-12692.4,0a10.645,10.645,0,0,1,6.456,2.194,10.61,10.61,0,0,1,3.325,12.482.6.6,0,0,1-.555.37Zm18.05-1.2a9.408,9.408,0,0,0-3.093-10.7A9.315,9.315,0,0,0-12692.4,1.2a9.315,9.315,0,0,0-5.729,1.948,9.417,9.417,0,0,0-3.093,10.7h8.479l4.443-7.4a.6.6,0,0,1,.822-.2.6.6,0,0,1,.207.823l-4.071,6.785Z" transform="translate(13439.402 390.4)" fill="#1d1d1d"/>
  </g>
</svg>
